<?xml version="1.0"?>
<svg width="614" height="310" xmlns="http://www.w3.org/2000/svg">
  <polygon fill="#333333" points="139.542,6.702 128.257,72.792 99.78,72.792 111.333,6.702 55.72,6.702 22.676,196.91 78.556,196.91 91.452,123.297 119.661,123.297 106.765,196.91 314.285,196.91 322.883,146.67 272.913,146.67 288.764,56.136 333.627,56.136 342.225,6.702"/>
  <polygon fill="#007AC3" points="287.672,61.952 285.701,72.792 232.204,72.792 243.629,6.702 195.958,6.702 184.533,72.792 128.257,72.792 119.661,123.297 175.655,123.297 162.914,196.91 210.585,196.91 223.326,123.297 277,123.297 274,138.99 319.853,106.82"/>
  <path fill="#333333" d="M422.816,168.972 H388.7 L378.76,196.91 h-58.567 L400.251,6.702 h69.581 L479.772,196.91 h-56.956 z M402.132,126.254 h21.493 V63.658 h-1.076z"/>
  <path fill="#333333" d="M599.055,196.91 h-105.85 L526.25,6.702 h56.687 l-23.911,138.356 h49.163z"/>
  <path fill="#656565" d="M76.342,248.348 c0,6.581-0.79,13.251-2.369,20.007 c-1.58,6.758-4.168,12.855-7.766,18.296 c-3.599,5.441-8.337,9.894-14.215,13.359 c-5.88,3.468-13.163,5.199-21.85,5.199 H3.159 l16.189-93.189 h24.614 c5.792,0,10.748,0.878,14.874,2.632 c4.124,1.757,7.48,4.234,10.069,7.437 c2.587,3.205,4.475,7.042,5.66,11.518 S76.342,242.996,76.342,248.348z M55.677,250.02 c0-2.908-0.243-5.619-0.724-8.132 c-0.483-2.512-1.273-4.671-2.369-6.479 c-1.098-1.806-2.501-3.239-4.212-4.296 c-1.711-1.058-3.797-1.588-6.252-1.588 h-5.66 l-10.003,58.178 h5.923 c3.86,0,7.239-1.146,10.135-3.437 c2.896-2.291,5.331-5.245,7.305-8.86 c1.974-3.613,3.443-7.646,4.409-12.097 C55.194,258.858,55.677,254.429,55.677,250.02z"/>
  <path fill="#656565" d="M155.315,245.451 c0,7.635-1.01,15.16-3.027,22.574 c-2.02,7.416-4.893,14.062-8.622,19.94 c-3.73,5.88-8.292,10.619-13.688,14.216 c-5.397,3.597-11.474,5.396-18.23,5.396 c-4.739,0-8.973-0.855-12.702-2.566 c-3.73-1.711-6.867-4.124-9.411-7.239 c-2.546-3.114-4.475-6.845-5.791-11.188 c-1.316-4.344-1.975-9.19-1.975-14.544 c0-7.635,0.987-15.181,2.961-22.64 c1.975-7.457,4.825-14.127,8.556-20.007 c3.729-5.878,8.292-10.639,13.689-14.281 c5.396-3.641,11.517-5.463,18.362-5.463 c5.001,0,9.366,0.856,13.096,2.567 c3.729,1.711,6.845,4.146,9.346,7.305 c2.5,3.159,4.364,6.933,5.594,11.32 C154.701,235.23,155.315,240.101,155.315,245.451z M134.387,248.348 c0-2.456-0.177-4.87-0.526-7.239 c-0.352-2.37-0.944-4.431-1.777-6.187 c-0.835-1.755-1.954-3.18-3.356-4.278 c-1.405-1.096-3.159-1.645-5.265-1.645 c-3.336,0-6.297,1.361-8.885,4.08 c-2.589,2.721-4.761,6.143-6.515,10.267 c-1.756,4.126-3.073,8.601-3.949,13.426 c-0.878,4.827-1.316,9.302-1.316,13.426 c0,2.457,0.197,4.783,0.592,6.976 c0.395,2.194,1.008,4.104,1.843,5.726 c0.833,1.625,1.975,2.896,3.422,3.817 c1.448,0.921,3.225,1.382,5.331,1.382 c3.159,0,6.01-1.271,8.556-3.817 c2.544-2.544,4.693-5.791,6.45-9.739 c1.754-3.949,3.093-8.247,4.015-12.899 C133.927,256.991,134.387,252.56,134.387,248.348z"/>
  <path fill="#656565" d="M215.862,235.58 c-1.23-2.018-2.721-3.598-4.475-4.738 c-1.757-1.14-4.038-1.712-6.845-1.712 c-3.511,0-6.669,1.273-9.477,3.817 c-2.809,2.546-5.178,5.748-7.107,9.608 c-1.931,3.862-3.402,8.141-4.41,12.834 c-1.01,4.695-1.514,9.192-1.514,13.491 c0,5.616,1.008,10.201,3.027,13.755 c2.018,3.554,5.265,5.33,9.74,5.33 c2.982,0,5.483-0.679,7.502-2.04 c2.018-1.359,3.729-2.784,5.134-4.277 l9.345,15.005 c-3.073,3.159-6.692,5.771-10.859,7.832 c-4.169,2.061-9.062,3.093-14.676,3.093 c-4.916,0-9.28-0.878-13.097-2.633 c-3.817-1.754-6.999-4.212-9.543-7.37 c-2.546-3.159-4.475-6.954-5.791-11.386 c-1.316-4.43-1.975-9.323-1.975-14.676 c0-7.897,1.074-15.575,3.225-23.035 c2.149-7.457,5.199-14.061,9.148-19.809 c3.949-5.747,8.665-10.354,14.15-13.821 c5.483-3.465,11.517-5.199,18.098-5.199 c6.318,0,11.386,1.054,15.203,3.159 c3.817,2.106,6.822,4.695,9.016,7.766 L215.862,235.58z"/>
  <path fill="#656565" d="M289.965,270.724 c-0.967,5.179-2.238,10.003-3.817,14.479 c-1.579,4.476-3.73,8.381-6.449,11.715 c-2.721,3.336-6.1,5.945-10.135,7.831 c-4.037,1.886-8.996,2.83-14.874,2.83 c-4.738,0-8.864-0.658-12.373-1.975 c-3.511-1.315-6.429-3.158-8.753-5.528 c-2.326-2.369-4.06-5.153-5.199-8.357 c-1.142-3.202-1.711-6.733-1.711-10.596 c0-1.58,0.066-3.246,0.198-5.002 c0.131-1.754,0.372-3.554,0.724-5.396 l10.267-58.704 h20.402 l-10.003,57.124 c-0.263,1.493-0.483,2.962-0.658,4.41 c-0.177,1.447-0.263,2.786-0.263,4.015 c0,3.072,0.636,5.616,1.909,7.634 c1.271,2.02,3.531,3.027,6.779,3.027 c2.281,0,4.212-0.504,5.792-1.514 c1.579-1.008,2.896-2.369,3.949-4.08 c1.053-1.711,1.929-3.729,2.632-6.055 c0.701-2.324,1.271-4.805,1.711-7.438 l9.872-57.124 h20.27 L289.965,270.724z"/>
  <path fill="#656565" d="M381.837,305.209 h-19.875 l11.978-64.759 h-0.395 l-27.378,64.759 h-14.479 l-4.212-64.759 h-0.395 l-10.662,64.759 h-18.295 l16.321-93.189 h25.403 l4.475,60.941 h0.527 l25.403-60.941 h27.904z"/>
  <path fill="#656565" d="M454.625,229.788 h-24.35 l-3.422,19.349 h22.771 l-2.896,16.585 h-22.639 l-3.686,21.323 h26.588 l-3.159,18.164 h-45.937 l16.189-93.189 h43.567z"/>
  <path fill="#656565" d="M516.883,305.209 h-21.719 l-12.24-58.046 h-0.396 l-9.477,58.046 h-18.164 l16.189-93.189 h22.244 l11.715,58.836 h0.526 l9.74-58.836 h17.77z"/>
  <path fill="#656565" d="M591.381,229.262 H574.27 l-13.294,75.947 h-20.007 l13.294-75.947 h-17.11 l3.027-17.242 h54.229z"/>
</svg>
